<?xml version="1.0" encoding="utf-8"?>
<!-- Generator: Adobe Adobe Illustrator 24.2.0, SVG Export Plug-In . SVG Version: 6.00 Build 0)  -->
<svg version="1.1" id="Layer_1" xmlns="http://www.w3.org/2000/svg" xmlns:xlink="http://www.w3.org/1999/xlink" x="0px" y="0px"
	 width="400.83px" height="373.75px" viewBox="0 0 400.83 373.75" style="enable-background:new 0 0 400.83 373.75;"
	 xml:space="preserve">
<style type="text/css">
	.st0{opacity:0.4902;}
	.st1{fill:#FBB523;}
	.st2{fill:#033964;}
	.st3{fill:#013763;}
	.st4{fill:#0FBED1;}
	.st5{fill:none;stroke:#FBB523;stroke-miterlimit:10;}
	.st6{fill:none;stroke:#FFFFFF;stroke-miterlimit:10;}
	.st7{fill:none;stroke:#0FBED1;stroke-miterlimit:10;}
	.st8{opacity:0.6392;}
	.st9{fill:#EBB93D;}
	.st10{fill:#4BEB3D;}
	.st11{fill:#FF0B03;}
	.st12{opacity:0.5098;fill:#033964;}
	.st13{opacity:0.502;fill:#013763;}
	.st14{opacity:0.7216;}
	.st15{fill:none;stroke:#FBB523;stroke-width:2;stroke-miterlimit:10;}
	.st16{fill:none;stroke:#0FBED1;stroke-width:2;stroke-miterlimit:10;}
	.st17{opacity:0.2314;fill:url(#SVGID_10_);}
	.st18{opacity:0.702;}
	.st19{fill:#FFFFFF;stroke:#FFFFFF;stroke-miterlimit:10;}
	.st20{fill:#EEDFD2;}
	.st21{fill:#97C05A;}
	.st22{fill:#E1C024;}
	.st23{fill:#D8DCDE;}
	.st24{fill:#E7E8E8;}
	.st25{fill:#E2C73D;}
	.st26{fill:#95B948;}
	.st27{fill:#CAAB9D;}
	.st28{fill:#979A9C;}
	.st29{fill:#2B5B83;}
	.st30{fill:#B6D578;}
	.st31{fill:#CEE396;}
	.st32{fill:#A49189;}
	.st33{fill:#D7B323;}
	.st34{fill:#B3B7B9;}
	.st35{fill:#EDDB57;}
	.st36{fill:#A4CA54;}
	.st37{fill:#5590B5;}
	.st38{fill:#C09F91;}
	.st39{fill:#BFDE83;}
	.st40{fill:#74AC5E;}
	.st41{fill:#79BFD9;}
	.st42{fill:#9DC44A;}
	.st43{fill:#E5D3C8;}
	.st44{fill:#DCC4B7;}
	.st45{fill:#EBDACC;}
	.st46{fill:#E0CDC1;}
	.st47{fill:#A1C958;}
	.st48{fill:#E0BD21;}
	.st49{fill:#E5C020;}
	.st50{fill:#23A7D3;}
	.st51{fill:#C8CACA;}
	.st52{fill:#5CC8E6;}
	.st53{fill:#D3B7AA;}
	.st54{fill:#B79587;}
	.st55{fill:#A68476;}
	.st56{fill:#D8BEB1;}
	.st57{fill:#0761A0;}
	.st58{fill:#09538F;}
	.st59{fill:#0778B8;}
	.st60{fill:#076EAE;}
	.st61{fill:#A6CC58;}
	.st62{fill:#ADD166;}
	.st63{fill:#B2D56B;}
	.st64{fill:#9E7C70;}
	.st65{fill:#A6CC5C;}
	.st66{fill:#B4CC4D;}
	.st67{fill:#B4D35D;}
	.st68{fill:#ABCD57;}
	.st69{fill:#179BCE;}
	.st70{fill:#0E90C9;}
	.st71{fill:#9EBC38;}
	.st72{fill:#E1A30A;}
	.st73{fill:#30C5E6;}
	.st74{fill:#E5AE22;}
	.st75{fill:#D5870B;}
	.st76{fill:#DFB717;}
	.st77{fill:#E2B114;}
	.st78{fill:#22BCE2;}
	.st79{fill:#24B1DB;}
	.st80{fill:#C6A79A;}
	.st81{fill:#B08D7F;}
	.st82{fill:#0A84C0;}
	.st83{fill:#B3CE55;}
	.st84{fill:#E4AA1F;}
	.st85{fill:#D47402;}
	.st86{fill:#DC8905;}
	.st87{fill:#D4B53D;}
	.st88{fill:#D1B036;}
	.st89{fill:#AD8A38;}
	.st90{fill:#DAC68D;}
	.st91{fill:#D6BA44;}
	.st92{fill:#AB872D;}
	.st93{fill:#D0B03C;}
	.st94{fill:#D3BB70;}
	.st95{fill:#D9C27B;}
	.st96{fill:#C5A642;}
	.st97{fill:#9B2839;}
	.st98{fill:#3EA3D5;}
	.st99{fill:#C9AC4F;}
	.st100{fill:#BF9E38;}
	.st101{fill:#A93046;}
	.st102{fill:#AC8223;}
	.st103{fill:#319ED3;}
	.st104{fill:#996B15;}
	.st105{fill:#437DA2;}
	.st106{fill:#2179B3;}
	.st107{fill:#B09348;}
	.st108{fill:#C09728;}
	.st109{fill:#84540E;}
	.st110{fill:#B8767D;}
	.st111{fill:#CCA936;}
	.st112{fill:#B38E29;}
	.st113{fill:#A57C20;}
	.st114{fill:#D2B65D;}
	.st115{fill:#2D8BB9;}
	.st116{fill:#2A92C9;}
	.st117{fill:#CDAD41;}
	.st118{fill:#D8BC46;}
	.st119{fill:#D5D3D0;}
	.st120{fill:#CECBC5;}
	.st121{fill:#AF8B29;}
	.st122{fill:#BC9729;}
	.st123{fill:#DABE4B;}
	.st124{fill:#C7A32E;}
	.st125{fill:#CEB14B;}
	.st126{fill:#C5A237;}
	.st127{fill:#861A2B;}
	.st128{fill:#C3C0BB;}
	.st129{fill:#ACA59E;}
	.st130{fill:#B7B4B1;}
	.st131{fill:#DCD7CD;}
	.st132{fill:#B8AD9F;}
	.st133{fill:#743F09;}
	.st134{fill:#B0ACA8;}
	.st135{fill:#C3B9AF;}
</style>
<g>
	<path class="st1" d="M272.32,83.06c2.22-6.03,7.04-8.81,12.7-8.97c13.62-0.4,27.26-0.08,40.89-0.19c2.8-0.02,3.53,1.15,3.51,3.82
		c-0.09,11.24,0.05,22.49-0.09,33.73c-0.12,9.71-5.92,15.38-15.34,15.37c-14.18-0.01-28.36-0.02-42.91-0.07
		c-0.36-0.04-0.35,0.02-0.35,0.02c-0.01-12.85-0.02-25.71,0.32-38.91C271.26,85.28,272.32,83.06,272.32,83.06z"/>
	<path class="st2" d="M71.42,256.24c-0.01-43.25-0.01-86.11-0.01-129.22c1.04-0.11,1.95-0.3,2.86-0.3
		c26.59,0.03,53.18-0.07,79.77,0.19c11.06,0.11,21.96,1.83,32.09,6.85c15.31,7.58,23.15,22.34,22.08,39.95
		c-0.86,14.28-6.3,25.39-19.44,32.57c1.45,0.49,2.24,0.77,3.05,1.02c20.49,6.42,31.33,24.89,28.07,47.81
		c-3.58,25.09-18.67,40.38-44.86,43.23c-15.42,1.68-31.06,1.11-46.61,1.45c-6.71,0.15-13.43,0.02-20.48,0.02
		c0-10.14,0-19.77,0-29.92c-7.03,0-13.72,0.11-20.42-0.03C78.28,269.7,73.36,265.56,71.42,256.24z M129.72,269.6
		c7.3,0,14.62,0.37,21.88-0.11c5.97-0.4,12.12-1.04,17.75-2.96c8.53-2.9,12.91-10.6,12.72-19.87c-0.19-9.56-4.65-16.23-13.39-19.41
		c-3.07-1.12-6.39-2.08-9.61-2.12c-16.65-0.23-33.31-0.14-49.97-0.13c-0.22,0-0.45,0.31-0.62,0.44c0,14.63,0,29.23,0,44.17
		C115.45,269.6,122.17,269.6,129.72,269.6z M154.3,193.35c7.12-1.59,13.11-4.61,14.67-12.9c2.25-11.98-2.64-20.13-14.34-21.9
		c-8.93-1.35-18.09-1.18-27.15-1.47c-6.28-0.2-12.58-0.04-19.04-0.04c0,12.69,0,24.86,0,37.79
		C123.65,194.36,138.63,193.9,154.3,193.35z"/>
	<path class="st3" d="M233.36,266.9c0-23.49,0.38-46.55-0.16-69.6c-0.25-10.56,6.25-18.78,17.54-17.84
		c6.53,0.55,13.14,0.1,19.91,0.1c0,40.17,0,79.95,0,119.98c-12.33,0-24.52,0-37.29,0C233.36,288.86,233.36,278.1,233.36,266.9z"/>
	<path class="st4" d="M270.69,126.7c0.02,6.53,0.2,13.08,0.08,19.61c-0.16,8.75-2.41,10.93-10.74,10.93c-8.65,0-17.31,0-26.64,0
		c0-7.66-0.04-15.04,0.01-22.42c0.04-4.88,2.91-7.99,7.65-8.04c9.63-0.1,19.26-0.01,29.28-0.01
		C270.73,126.76,270.72,126.7,270.69,126.7z"/>
</g>
</svg>
